<?xml version="1.0"?>
<svg width="216" height="220" xmlns="http://www.w3.org/2000/svg" xmlns:svg="http://www.w3.org/2000/svg">
 <g class="layer">
  <title>Layer 1</title>
  <g id="svg_15">
   <rect fill="#3a547f" height="231.12" id="svg_37" width="215.12" x="0" y="-0.13"/>
   <g id="svg_35">
    <g id="svg_14">
     <path clip-rule="evenodd" d="m114.81,67.18c4.05,0 7.32,3.01 7.32,6.69l0,80.25c0,3.68 -3.27,6.69 -7.32,6.69c-4.05,0 -7.32,-3.01 -7.32,-6.69l0,-80.25c0,-3.68 3.27,-6.69 7.32,-6.69z" fill="white" fill-rule="evenodd" id="svg_1"/>
     <path clip-rule="evenodd" d="m177.78,104.63c4.05,0 7.32,3.01 7.32,6.69l0,41.46c0,3.68 -3.27,6.69 -7.32,6.69c-4.05,0 -7.32,-3.01 -7.32,-6.69l0,-41.46c0,-3.68 3.27,-6.69 7.32,-6.69z" fill="white" fill-rule="evenodd" id="svg_2"/>
     <path clip-rule="evenodd" d="m145.57,104.63c4.05,0 7.32,3.01 7.32,6.69l0,41.46c0,3.68 -3.27,6.69 -7.32,6.69c-4.05,0 -7.32,-3.01 -7.32,-6.69l0,-41.46c0,-3.68 3.27,-6.69 7.32,-6.69z" fill="white" fill-rule="evenodd" id="svg_3"/>
     <path clip-rule="evenodd" d="m84.08,104.63c4.05,0 7.32,3.01 7.32,6.69l0,41.46c0,3.68 -3.27,6.69 -7.32,6.69c-4.05,0 -7.32,-3.01 -7.32,-6.69l0,-41.46c0,-3.68 3.27,-6.69 7.32,-6.69z" fill="white" fill-rule="evenodd" id="svg_4"/>
     <path clip-rule="evenodd" d="m114.04,69.39c1.13,1.07 1.06,2.74 -0.14,3.78l-87.85,74.9c-1.16,1 -3.03,0.97 -4.12,-0.13c-1.13,-1.07 -1.06,-2.74 0.14,-3.78l88.38,-75.64c1.16,-1 2.5,-0.23 3.59,0.87z" fill="white" fill-rule="evenodd" id="svg_5"/>
     <path clip-rule="evenodd" d="m177,106.84c1.09,1.1 0.99,2.78 -0.21,3.78l-57.58,48.85c-1.2,1 -5.49,1.54 -6.55,0.47c-1.09,-1.1 -0.99,-2.78 0.21,-3.78l60.54,-50.19c1.2,-1 2.53,-0.2 3.63,0.87l-0.04,0z" fill="white" fill-rule="evenodd" id="svg_6"/>
     <path clip-rule="evenodd" d="m144.8,106.84c1.09,1.1 0.99,2.78 -0.21,3.78l-56.14,47.51c-1.2,1 -5.49,1.54 -6.55,0.47c-1.09,-1.1 -0.99,-2.78 0.21,-3.78l59.06,-48.85c1.2,-1 2.53,-0.2 3.63,0.87z" fill="white" fill-rule="evenodd" id="svg_7"/>
     <path clip-rule="evenodd" d="m83.24,106.74c1.13,1.04 1.13,2.74 0,3.81l-8.8,8.02c-1.13,1.04 -3.03,1.04 -4.15,0c-1.13,-1.04 -1.13,-2.74 0,-3.81l7.92,-7.46c1.13,-1.04 3.87,-1.6 5,-0.57l0.04,0z" fill="white" fill-rule="evenodd" id="svg_8"/>
     <path clip-rule="evenodd" d="m194.71,144.42c1.02,1.14 0.81,2.84 -0.46,3.74l-12.07,9.96c-1.27,0.9 -5.67,1.5 -6.69,0.33c-1.02,-1.14 -0.81,-2.84 0.46,-3.74l14.64,-10.7c1.27,-0.94 3.1,-0.74 4.08,0.43l0.04,-0.03z" fill="white" fill-rule="evenodd" id="svg_9"/>
     <path clip-rule="evenodd" d="m162.5,144.42c1.02,1.14 0.81,2.84 -0.46,3.74l-12.07,9.96c-1.27,0.9 -5.67,1.5 -6.69,0.33c-1.02,-1.14 -0.81,-2.84 0.46,-3.74l14.64,-10.7c1.27,-0.94 3.1,-0.74 4.08,0.43l0.04,-0.03z" fill="white" fill-rule="evenodd" id="svg_10"/>
     <path d="m144.09,67.18c3.41,4.01 8.2,14.44 0,24.07" id="svg_11" stroke="white" stroke-linecap="round"/>
     <path d="m157.29,67.18c3.41,4.01 8.2,14.44 0,24.07" id="svg_12" stroke="white" stroke-linecap="round"/>
     <path d="m168.98,67.18c3.41,4.01 8.2,14.44 0,24.07" id="svg_13" stroke="white" stroke-linecap="round"/>
    </g>
   </g>
  </g>
 </g>
</svg>