<svg width="61" height="69" xmlns="http://www.w3.org/2000/svg" fill="none">

 <g>
  <title>Layer 1</title>
  <rect id="svg_37" height="69.12493" width="61.12494" y="-0.12503" x="0.00003" fill="#3a547f"/>
  <g id="svg_35">
   <path id="svg_1" fill="white" d="m33,16c1.3807,0 2.5,1.1193 2.5,2.5l0,30c0,1.3807 -1.1193,2.5 -2.5,2.5c-1.3807,0 -2.5,-1.1193 -2.5,-2.5l0,-30c0,-1.3807 1.1193,-2.5 2.5,-2.5z" clip-rule="evenodd" fill-rule="evenodd"/>
   <path id="svg_2" fill="white" d="m54.5,30c1.3807,0 2.5,1.1193 2.5,2.5l0,15.5c0,1.3807 -1.1193,2.5 -2.5,2.5c-1.3807,0 -2.5,-1.1193 -2.5,-2.5l0,-15.5c0,-1.3807 1.1193,-2.5 2.5,-2.5z" clip-rule="evenodd" fill-rule="evenodd"/>
   <path id="svg_3" fill="white" d="m43.5,30c1.3807,0 2.5,1.1193 2.5,2.5l0,15.5c0,1.3807 -1.1193,2.5 -2.5,2.5c-1.3807,0 -2.5,-1.1193 -2.5,-2.5l0,-15.5c0,-1.3807 1.1193,-2.5 2.5,-2.5z" clip-rule="evenodd" fill-rule="evenodd"/>
   <path id="svg_4" fill="white" d="m22.5,30c1.3807,0 2.5,1.1193 2.5,2.5l0,15.5c0,1.3807 -1.1193,2.5 -2.5,2.5c-1.3807,0 -2.5,-1.1193 -2.5,-2.5l0,-15.5c0,-1.3807 1.1193,-2.5 2.5,-2.5z" clip-rule="evenodd" fill-rule="evenodd"/>
   <path id="svg_5" fill="white" d="m32.7311,16.8177c0.3768,0.4037 0.355,1.0365 -0.0488,1.4134l-29.99998,28c-0.40375,0.3768 -1.03654,0.355 -1.41337,-0.0488c-0.37684,-0.4037 -0.35502,-1.0365 0.04874,-1.4134l30.18231,-28.2689c0.4037,-0.3768 0.8542,-0.0861 1.2311,0.3177z" clip-rule="evenodd" fill-rule="evenodd"/>
   <path id="svg_6" fill="white" d="m54.2424,30.83c0.37,0.4101 0.3376,1.0424 -0.0724,1.4124l-19.67,18.2576c-0.41,0.37 -1.8724,0.58 -2.2424,0.17c-0.37,-0.41 -0.3376,-1.0424 0.0724,-1.4124l20.67,-18.7576c0.41,-0.37 0.8724,-0.08 1.2424,0.33z" clip-rule="evenodd" fill-rule="evenodd"/>
   <path id="svg_7" fill="white" d="m43.2433,30.831c0.3694,0.4105 0.3362,1.0428 -0.0743,1.4123l-19.169,17.7567c-0.4105,0.3695 -1.8738,0.5795 -2.2433,0.169c-0.3695,-0.4105 -0.3362,-1.0428 0.0743,-1.4123l20.169,-18.2567c0.4105,-0.3695 0.8738,-0.0795 1.2433,0.331z" clip-rule="evenodd" fill-rule="evenodd"/>
   <path id="svg_8" fill="white" d="m22.2071,30.7929c0.3905,0.3905 0.3905,1.0237 0,1.4142l-3,3c-0.3905,0.3905 -1.0237,0.3905 -1.4142,0c-0.3905,-0.3905 -0.3905,-1.0237 0,-1.4142l2.7071,-2.7929c0.3905,-0.3905 1.3166,-0.5976 1.7071,-0.2071z" clip-rule="evenodd" fill-rule="evenodd"/>
   <path id="svg_9" fill="white" d="m60.2809,44.8753c0.345,0.4313 0.2751,1.0606 -0.1562,1.4056l-4.1247,3.7191c-0.4313,0.345 -1.9359,0.556 -2.2809,0.1247c-0.345,-0.4313 -0.2751,-1.0606 0.1562,-1.4056l5,-4c0.4313,-0.345 1.0606,-0.2751 1.4056,0.1562z" clip-rule="evenodd" fill-rule="evenodd"/>
   <path id="svg_10" fill="white" d="m49.2809,44.8753c0.345,0.4313 0.2751,1.0606 -0.1562,1.4056l-4.1247,3.7191c-0.4313,0.345 -1.9359,0.556 -2.2809,0.1247c-0.345,-0.4313 -0.2751,-1.0606 0.1562,-1.4056l5,-4c0.4313,-0.345 1.0606,-0.2751 1.4056,0.1562z" clip-rule="evenodd" fill-rule="evenodd"/>
   <path id="svg_11" stroke-linecap="round" stroke="white" d="m43,16c1.1667,1.5 2.8,5.4 0,9"/>
   <path id="svg_12" stroke-linecap="round" stroke="white" d="m47.5,16c1.1667,1.5 2.8,5.4 0,9"/>
   <path id="svg_13" stroke-linecap="round" stroke="white" d="m51.5,16c1.1667,1.5 2.8,5.4 0,9"/>
   <path id="svg_14" stroke-linecap="round" stroke="#5E80C9" d="m0,0c0.33333,1 1.6,3 4,3c2.4,0 14.3333,0 20,0c2,0 4.9,0.6 6.5,5"/>
   <path id="svg_15" stroke-linecap="round" stroke="#5E80C9" d="m60.5,0c-0.3333,1 -1.6,3 -4,3c-2.4,0 -14.3333,0 -20,0c-2,0 -4.4,0.6 -6,5"/>
   <path id="svg_16" stroke-linecap="round" stroke="#5D7DC4" d="m3.5,63.5c8.8333,-8.6667 29.6,-20.8 54,0"/>
   <path id="svg_17" stroke-linecap="round" stroke="#5D7DC4" d="m9,65.5c7.5,-9 23.7,-24.4 42.5,0"/>
   <path id="svg_18" stroke-linecap="round" stroke="#5D7DC4" d="m19.5,67.5c6,-16.5 12.9348,-23.0142 22.5,0"/>
   <path id="svg_19" stroke-linecap="round" stroke="#5D7DC4" d="m30.5,69l0,-16.5"/>
   <path id="svg_20" stroke-linecap="round" stroke="#5D7DC4" d="m6,61.5c8.5,4.1667 29,10 49,0"/>
   <path id="svg_21" stroke-linecap="round" stroke="#5D7DC4" d="m15.5,55.5c4.8333,1.3333 16.7,3.2 29.5,0"/>
   <path id="svg_22" fill="#5F83CF" d="m11.4312,13.1354l-4.2121,-5.25033l3.9345,-1.47503l0.2776,6.72536z"/>
   <path id="svg_23" fill="#5F83CF" d="m10.3414,14.4852l-6.72752,-0.2182l1.4402,-3.9473l5.28732,4.1655z"/>
   <path id="svg_24" fill="#5F83CF" d="m13.7716,13.1354l4.212,-5.25033l-3.9344,-1.47503l-0.2776,6.72536z"/>
   <path id="svg_25" fill="#5F83CF" d="m14.8613,14.4852l6.7276,-0.2182l-1.4403,-3.9473l-5.2873,4.1655z"/>
   <path id="svg_26" fill="#5F83CF" d="m11.4312,17.4646l-4.2121,5.2503l3.9345,1.4751l0.2776,-6.7254z"/>
   <path id="svg_27" fill="#5F83CF" d="m10.3414,16.1148l-6.72752,0.2182l1.4402,3.9473l5.28732,-4.1655z"/>
   <path id="svg_28" fill="#5F83CF" d="m13.7716,17.4646l4.212,5.2503l-3.9344,1.4751l-0.2776,-6.7254z"/>
   <path id="svg_29" fill="#5F83CF" d="m14.8613,16.1148l6.7276,0.2182l-1.4403,3.9473l-5.2873,-4.1655z"/>
   <circle id="svg_30" fill="#5F83CF" r="3" cy="15.6" cx="12.6"/>
  </g>
 </g>
</svg>